<?xml version="1.0" encoding="UTF-8"?>
<svg version="1.1" xmlns="http://www.w3.org/2000/svg" width="32" height="32">
<path d="M0 0 C10.56 0 21.12 0 32 0 C32 10.56 32 21.12 32 32 C21.44 32 10.88 32 0 32 C0 21.44 0 10.88 0 0 Z " fill="#473F5A" transform="translate(0,0)"/>
<path d="M0 0 C0.7734375 0.03996094 1.546875 0.07992188 2.34375 0.12109375 C3.1171875 0.14300781 3.890625 0.16492188 4.6875 0.1875 C6.84375 0.55859375 6.84375 0.55859375 9.84375 2.55859375 C10.9765625 4.765625 10.9765625 4.765625 11.96875 7.37109375 C12.30132813 8.22316406 12.63390625 9.07523438 12.9765625 9.953125 C14.7389523 15.24823308 15.10816552 18.31468412 12.84375 23.55859375 C12.18375 23.88859375 11.52375 24.21859375 10.84375 24.55859375 C11.50375 25.21859375 12.16375 25.87859375 12.84375 26.55859375 C11.85375 26.88859375 10.86375 27.21859375 9.84375 27.55859375 C10.17375 28.21859375 10.50375 28.87859375 10.84375 29.55859375 C3.93790557 29.38633913 0.16891617 27.97734866 -5.15625 23.55859375 C-4.82625 24.87859375 -4.49625 26.19859375 -4.15625 27.55859375 C-6.91901177 27.03590909 -9.4823376 26.44989788 -12.15625 25.55859375 C-12.15625 24.56859375 -12.15625 23.57859375 -12.15625 22.55859375 C-9.84625 22.55859375 -7.53625 22.55859375 -5.15625 22.55859375 C-5.19105469 21.38941406 -5.22585937 20.22023438 -5.26171875 19.015625 C-5.28986716 17.46746234 -5.31716619 15.91928407 -5.34375 14.37109375 C-5.38145508 13.21770508 -5.38145508 13.21770508 -5.41992188 12.04101562 C-5.5564229 1.43943564 -5.5564229 1.43943564 0 0 Z " fill="#BD5C43" transform="translate(12.15625,1.44140625)"/>
<path d="M0 0 C5.61 0 11.22 0 17 0 C17 0.66 17 1.32 17 2 C14.69 2 12.38 2 10 2 C7.75332362 6.21251821 7.892009 9.84913427 7.99609375 14.484375 C8.00116717 17.75165915 7.55902811 20.78558837 7 24 C4.69 24 2.38 24 0 24 C0 16.08 0 8.16 0 0 Z " fill="#7C3F31" transform="translate(0,0)"/>
<path d="M0 0 C2.64 0 5.28 0 8 0 C7.67 1.65 7.34 3.3 7 5 C7.66 5 8.32 5 9 5 C9.66 8.3 10.32 11.6 11 15 C10.34 15 9.68 15 9 15 C9 17.31 9 19.62 9 22 C6.69 21.34 4.38 20.68 2 20 C1.9175 19.401875 1.835 18.80375 1.75 18.1875 C0.79544128 15.4033704 -0.57132271 14.56688858 -3 13 C-2.505 12.1028125 -2.505 12.1028125 -2 11.1875 C-0.79212012 8.94613529 -0.79212012 8.94613529 -1 6 C0.5 4.3125 0.5 4.3125 2 3 C1.01 2.67 0.02 2.34 -1 2 C-0.67 1.34 -0.34 0.68 0 0 Z " fill="#D48152" transform="translate(11,7)"/>
<path d="M0 0 C0.66 0 1.32 0 2 0 C2.65134925 1.56020867 3.29582964 3.12328579 3.9375 4.6875 C4.29714844 5.55761719 4.65679687 6.42773438 5.02734375 7.32421875 C6.95259514 12.62059307 7.27881413 15.72274623 5 21 C4.34 21.33 3.68 21.66 3 22 C3.66 22.66 4.32 23.32 5 24 C4.01 24.33 3.02 24.66 2 25 C2.33 25.66 2.66 26.32 3 27 C-2.86448454 26.7444669 -6.65757571 26.34242429 -11 22 C-10.67 20.68 -10.34 19.36 -10 18 C-9.01 18.33 -8.02 18.66 -7 19 C-7 20.32 -7 21.64 -7 23 C-5.02 23.33 -3.04 23.66 -1 24 C0.67738866 19.06650394 0.97280735 16.05859822 0 11 C-0.09653023 7.3318511 -0.05875085 3.66866435 0 0 Z " fill="#A28375" transform="translate(20,4)"/>
<path d="M0 0 C0.99 0.33 1.98 0.66 3 1 C3 1.66 3 2.32 3 3 C3.99 3 4.98 3 6 3 C5.67 3.99 5.34 4.98 5 6 C5 5.34 5 4.68 5 4 C4.01 4.495 4.01 4.495 3 5 C3.33 5.99 3.66 6.98 4 8 C-5.57 8 -15.14 8 -25 8 C-25 6.35 -25 4.7 -25 3 C-22.69 3.33 -20.38 3.66 -18 4 C-18 3.01 -18 2.02 -18 1 C-15.50638429 2.20381448 -13.31856917 3.45428722 -11 5 C-8.9507906 5.45139459 -8.9507906 5.45139459 -6.8125 5.625 C-5.554375 5.74875 -4.29625 5.8725 -3 6 C-3 5.01 -3 4.02 -3 3 C-1.5 1.3125 -1.5 1.3125 0 0 Z " fill="#645044" transform="translate(25,24)"/>
<path d="M0 0 C4.95 0 9.9 0 15 0 C15 2.97 15 5.94 15 9 C12.69 8.67 10.38 8.34 8 8 C8 7.34 8 6.68 8 6 C7.236875 5.71125 6.47375 5.4225 5.6875 5.125 C3 4 3 4 0 2 C0 1.34 0 0.68 0 0 Z " fill="#513A4F" transform="translate(17,0)"/>
<path d="M0 0 C1.65 0.33 3.3 0.66 5 1 C5.33 2.65 5.66 4.3 6 6 C5.34 6 4.68 6 4 6 C4 8.31 4 10.62 4 13 C0.625 12.3125 0.625 12.3125 -3 11 C-4.88746148 8.09016356 -5.08221595 6.61661964 -4.625 3.1875 C-4.41875 2.465625 -4.2125 1.74375 -4 1 C-3.34 1 -2.68 1 -2 1 C-2 1.99 -2 2.98 -2 4 C-0.68 4 0.64 4 2 4 C2 3.01 2 2.02 2 1 C1.34 0.67 0.68 0.34 0 0 Z " fill="#EEAE7F" transform="translate(16,16)"/>
<path d="M0 0 C1.98 0 3.96 0 6 0 C5.34 5.28 4.68 10.56 4 16 C3.34 16 2.68 16 2 16 C2 16.99 2 17.98 2 19 C1.34 19 0.68 19 0 19 C0 12.73 0 6.46 0 0 Z " fill="#B9562B" transform="translate(0,0)"/>
<path d="M0 0 C0.66 0 1.32 0 2 0 C2.65134925 1.56020867 3.29582964 3.12328579 3.9375 4.6875 C4.47697266 5.99267578 4.47697266 5.99267578 5.02734375 7.32421875 C6.48448367 11.33281651 7.37060241 13.88819277 6 18 C5.01 18 4.02 18 3 18 C0.57188075 12.17251381 0.38272093 6.2242509 0 0 Z " fill="#796375" transform="translate(20,4)"/>
<path d="M0 0 C0.99 0.33 1.98 0.66 3 1 C3 1.66 3 2.32 3 3 C3.99 3 4.98 3 6 3 C5.67 3.99 5.34 4.98 5 6 C5 5.34 5 4.68 5 4 C4.01 4.495 4.01 4.495 3 5 C3.33 5.99 3.66 6.98 4 8 C0.04 8 -3.92 8 -8 8 C-8.33 7.34 -8.66 6.68 -9 6 C-7.02 6 -5.04 6 -3 6 C-3 5.01 -3 4.02 -3 3 C-1.5 1.3125 -1.5 1.3125 0 0 Z " fill="#5F5967" transform="translate(25,24)"/>
<path d="M0 0 C0.94875 0.04125 1.8975 0.0825 2.875 0.125 C2.875 3.755 2.875 7.385 2.875 11.125 C1.885 11.125 0.895 11.125 -0.125 11.125 C-0.785 9.805 -1.445 8.485 -2.125 7.125 C-0.805 6.795 0.515 6.465 1.875 6.125 C0.885 6.125 -0.105 6.125 -1.125 6.125 C-1.125 5.465 -1.125 4.805 -1.125 4.125 C-2.445 3.465 -3.765 2.805 -5.125 2.125 C-3.125 0.125 -3.125 0.125 0 0 Z " fill="#463E4D" transform="translate(29.125,20.875)"/>
<path d="M0 0 C0.99 0.33 1.98 0.66 3 1 C2.67 2.32 2.34 3.64 2 5 C1.34 5 0.68 5 0 5 C0.33 6.32 0.66 7.64 1 9 C-1.76276177 8.47731534 -4.3260876 7.89130413 -7 7 C-7 6.01 -7 5.02 -7 4 C-4.69 4 -2.38 4 0 4 C0 2.68 0 1.36 0 0 Z " fill="#906C45" transform="translate(7,20)"/>
<path d="M0 0 C2.475 0.495 2.475 0.495 5 1 C5.33 2.65 5.66 4.3 6 6 C5.34 6 4.68 6 4 6 C4 8.31 4 10.62 4 13 C2.68 12.34 1.36 11.68 0 11 C0.66 11 1.32 11 2 11 C2 7.7 2 4.4 2 1 C1.34 0.67 0.68 0.34 0 0 Z " fill="#D7987D" transform="translate(16,16)"/>
<path d="M0 0 C0.33 0.66 0.66 1.32 1 2 C1.99 2 2.98 2 4 2 C4.33 1.34 4.66 0.68 5 0 C5 2.31 5 4.62 5 7 C3.02 7 1.04 7 -1 7 C-1.04254356 5.00045254 -1.04080783 2.99958364 -1 1 C-0.67 0.67 -0.34 0.34 0 0 Z " fill="#605358" transform="translate(27,14)"/>
<path d="M0 0 C2.64 0 5.28 0 8 0 C7.67 0.99 7.34 1.98 7 3 C6.34 3 5.68 3 5 3 C5 4.65 5 6.3 5 8 C4.7525 7.38125 4.505 6.7625 4.25 6.125 C2.79371361 3.64931313 1.62187494 3.04874998 -1 2 C-0.67 1.34 -0.34 0.68 0 0 Z " fill="#DF7F57" transform="translate(11,7)"/>
<path d="M0 0 C1.65 0 3.3 0 5 0 C4.34 5.28 3.68 10.56 3 16 C2.34 15.67 1.68 15.34 1 15 C1.33 10.71 1.66 6.42 2 2 C1.34 2 0.68 2 0 2 C0 1.34 0 0.68 0 0 Z " fill="#A54426" transform="translate(1,0)"/>
<path d="M0 0 C0.99 0.33 1.98 0.66 3 1 C3.6875 3.0625 3.6875 3.0625 4 5 C1.69 5 -0.62 5 -3 5 C-2.625 3.0625 -2.625 3.0625 -2 1 C-1.34 0.67 -0.68 0.34 0 0 Z " fill="#624E48" transform="translate(3,19)"/>
<path d="M0 0 C0.99 0.33 1.98 0.66 3 1 C3.98248524 5.0527516 4.08159574 8.83861737 4 13 C3.67 12.01 3.34 11.02 3 10 C2.34 10 1.68 10 1 10 C1.020625 9.0925 1.04125 8.185 1.0625 7.25 C1.0110245 4.57327412 0.7784983 2.53011948 0 0 Z " fill="#9A4C50" transform="translate(17,2)"/>
<path d="M0 0 C0.66 0 1.32 0 2 0 C2.22786458 2.01822917 2.45572917 4.03645833 2.68359375 6.0546875 C2.91292961 8.07404316 2.91292961 8.07404316 4 10 C3.01 10 2.02 10 1 10 C-0.83691257 6.21812119 -1.15837626 4.05431692 0 0 Z " fill="#E5A164" transform="translate(12,17)"/>
<path d="M0 0 C3.3 0 6.6 0 10 0 C10 0.66 10 1.32 10 2 C7.69 2 5.38 2 3 2 C3 2.66 3 3.32 3 4 C2.01 3.67 1.02 3.34 0 3 C0 2.01 0 1.02 0 0 Z " fill="#74333C" transform="translate(7,0)"/>
<path d="M0 0 C0.66 0.33 1.32 0.66 2 1 C2 2.65 2 4.3 2 6 C0.35 6 -1.3 6 -3 6 C-3 3 -3 3 -1.5 1.3125 C-0.7575 0.6628125 -0.7575 0.6628125 0 0 Z " fill="#D06B41" transform="translate(13,10)"/>
<path d="M0 0 C0.99 0.33 1.98 0.66 3 1 C3 1.66 3 2.32 3 3 C4.65 3 6.3 3 8 3 C7.67 3.99 7.34 4.98 7 6 C2.25 5.25 2.25 5.25 0 3 C0 2.01 0 1.02 0 0 Z " fill="#4A4764" transform="translate(24,10)"/>
<path d="M0 0 C0.99 0.33 1.98 0.66 3 1 C3 2.32 3 3.64 3 5 C3.99 5.33 4.98 5.66 6 6 C4.35 6 2.7 6 1 6 C-0.0625 4.125 -0.0625 4.125 -1 2 C-0.67 1.34 -0.34 0.68 0 0 Z " fill="#B0865B" transform="translate(10,22)"/>
<path d="M0 0 C1.65 0.33 3.3 0.66 5 1 C5 2.65 5 4.3 5 6 C4.401875 5.649375 3.80375 5.29875 3.1875 4.9375 C0.89186786 3.66695302 0.89186786 3.66695302 -2 5 C-2 4.34 -2 3.68 -2 3 C-1.34 3 -0.68 3 0 3 C0 2.01 0 1.02 0 0 Z " fill="#7E523A" transform="translate(2,16)"/>
<path d="M0 0 C1.32 0 2.64 0 4 0 C3.67 1.32 3.34 2.64 3 4 C0.69 4 -1.62 4 -4 4 C-4.33 3.34 -4.66 2.68 -5 2 C-3.02 2 -1.04 2 1 2 C0.67 1.34 0.34 0.68 0 0 Z " fill="#706876" transform="translate(21,28)"/>
<path d="M0 0 C0.66 0 1.32 0 2 0 C2 0.66 2 1.32 2 2 C2.66 2 3.32 2 4 2 C4 3.32 4 4.64 4 6 C2.68 6 1.36 6 0 6 C0 4.02 0 2.04 0 0 Z " fill="#CC6445" transform="translate(16,10)"/>
<path d="M0 0 C0.33 0 0.66 0 1 0 C1.99 3.3 2.98 6.6 4 10 C2.68 10.99 1.36 11.98 0 13 C0 8.71 0 4.42 0 0 Z " fill="#B06947" transform="translate(7,7)"/>
<path d="M0 0 C2 1 2 1 2.8515625 3.06640625 C3.10679688 3.89011719 3.36203125 4.71382812 3.625 5.5625 C3.88539062 6.38878906 4.14578125 7.21507812 4.4140625 8.06640625 C4.60742188 8.70449219 4.80078125 9.34257812 5 10 C3.68 10.33 2.36 10.66 1 11 C0.67 7.37 0.34 3.74 0 0 Z " fill="#9D7B7A" transform="translate(20,15)"/>
<path d="M0 0 C0.66 0 1.32 0 2 0 C2 0.99 2 1.98 2 3 C2.99 3 3.98 3 5 3 C4.67 3.66 4.34 4.32 4 5 C2.68 5 1.36 5 0 5 C0 3.35 0 1.7 0 0 Z " fill="#AA5638" transform="translate(8,7)"/>
<path d="M0 0 C1.65 0 3.3 0 5 0 C5 1.65 5 3.3 5 5 C3.02 4.01 1.04 3.02 -1 2 C-0.67 1.34 -0.34 0.68 0 0 Z " fill="#7A5949" transform="translate(27,4)"/>
</svg>
